# Blender v2.79 (sub 0) OBJ File: ''
# www.blender.org
mtllib Broom.mtl
o 0Broom_Mesh_0010.rip
v -0.000640 -0.000045 2.775141
v 0.329266 0.329904 2.889727
v -0.000641 0.466488 2.889726
v 0.465850 -0.000093 2.889726
v 0.329341 -0.330012 2.889726
v -0.000641 -0.466524 2.889726
v -0.330622 -0.330012 2.889727
v -0.467135 -0.000093 2.889726
v -0.330551 0.329901 2.889727
v -0.000640 0.270042 1.634860
v -0.073681 0.073026 1.311796
v -0.194833 0.190968 1.634860
v -0.000641 0.103269 1.311796
v -0.000641 0.103269 1.311796
v -0.066089 0.065436 1.287400
v -0.073681 0.073026 1.311796
v -0.000640 0.092535 1.287400
v -0.073681 0.073026 1.261666
v -0.000640 0.103269 1.261666
v -0.000640 0.103269 1.261666
v -0.107881 0.107226 1.024357
v -0.073681 0.073026 1.261666
v -0.000640 0.151632 1.024357
v -0.073681 0.073023 0.789904
v -0.000640 0.103269 0.789904
v -0.000640 0.103269 0.789904
v -0.062594 0.061938 0.755596
v -0.073681 0.073023 0.789904
v -0.000641 0.087594 0.755596
v -0.073681 0.073023 0.720808
v -0.000641 0.103269 0.720808
v -0.000641 0.103269 0.720808
v -0.132092 0.131424 0.569281
v -0.073681 0.073023 0.720808
v -0.000641 0.185865 0.569281
v -0.000641 0.185865 0.569281
v -0.027851 0.027180 0.600715
v -0.132092 0.131424 0.569281
v -0.000641 0.038451 0.600715
v -0.000641 0.038451 0.600715
v -0.027850 0.027183 -3.173235
v -0.027851 0.027180 0.600715
v -0.000640 0.038454 -3.173239
v -0.000640 0.038454 -3.173239
v -0.000640 -0.000027 -3.173236
v -0.027850 0.027183 -3.173235
v -0.103922 -0.000036 1.311796
v -0.248737 -0.000057 1.634860
v -0.093191 -0.000033 1.287400
v -0.103922 -0.000036 1.311796
v -0.103925 -0.000036 1.261666
v -0.152284 -0.000042 1.024357
v -0.103925 -0.000036 1.261666
v -0.103927 -0.000036 0.789904
v -0.088250 -0.000033 0.755596
v -0.103927 -0.000036 0.789904
v -0.103928 -0.000036 0.720808
v -0.186529 -0.000039 0.569281
v -0.103928 -0.000036 0.720808
v -0.039122 -0.000030 0.600718
v -0.186529 -0.000039 0.569281
v -0.039121 -0.000027 -3.173236
v -0.039122 -0.000030 0.600718
v -0.039121 -0.000027 -3.173236
v -0.073694 -0.073083 1.311796
v -0.066100 -0.065490 1.287400
v -0.073694 -0.073083 1.261666
v -0.073694 -0.073083 1.261666
v -0.107900 -0.107289 1.024357
v -0.073693 -0.073083 0.789904
v -0.073693 -0.073083 0.789904
v -0.062603 -0.061995 0.755596
v -0.073694 -0.073083 0.720808
v -0.073694 -0.073083 0.720808
v -0.132100 -0.131490 0.569281
v -0.132100 -0.131490 0.569281
v -0.027851 -0.027237 0.600715
v -0.027850 -0.027237 -3.173235
v -0.194869 -0.191052 1.634860
v -0.000641 -0.103314 1.311796
v -0.000641 -0.270084 1.634863
v -0.073694 -0.073083 1.311796
v -0.000640 -0.092577 1.287400
v -0.000641 -0.103314 1.311796
v -0.000640 -0.103314 1.261666
v -0.000640 -0.151674 1.024357
v -0.000640 -0.103314 1.261666
v -0.000640 -0.103314 0.789904
v -0.000641 -0.087642 0.755596
v -0.000640 -0.103314 0.789904
v -0.000641 -0.103317 0.720808
v -0.000640 -0.185916 0.569281
v -0.000641 -0.103317 0.720808
v -0.000641 -0.038511 0.600718
v -0.000640 -0.185916 0.569281
v -0.027851 -0.027237 0.600715
v -0.000640 -0.038508 -3.173236
v -0.000641 -0.038511 0.600718
v -0.027850 -0.027237 -3.173235
v -0.000640 -0.038508 -3.173236
v 0.193552 0.190968 1.634860
v 0.072401 0.073026 1.311796
v 0.072401 0.073026 1.311796
v 0.064807 0.065436 1.287400
v 0.072400 0.073026 1.261666
v 0.072400 0.073026 1.261666
v 0.106601 0.107226 1.024357
v 0.072400 0.073023 0.789904
v 0.072400 0.073023 0.789904
v 0.061315 0.061938 0.755596
v 0.072403 0.073023 0.720808
v 0.072403 0.073023 0.720808
v 0.130810 0.131424 0.569281
v 0.130810 0.131424 0.569281
v 0.026569 0.027180 0.600715
v 0.026569 0.027180 0.600715
v 0.026569 0.027183 -3.173236
v 0.026569 0.027183 -3.173236
v 0.247456 -0.000057 1.634860
v 0.102643 -0.000036 1.311796
v 0.102643 -0.000036 1.311796
v 0.091909 -0.000033 1.287400
v 0.102643 -0.000036 1.261666
v 0.102643 -0.000036 1.261666
v 0.151003 -0.000042 1.024357
v 0.102646 -0.000036 0.789904
v 0.102646 -0.000036 0.789904
v 0.086968 -0.000033 0.755596
v 0.102646 -0.000036 0.720808
v 0.102646 -0.000036 0.720808
v 0.185248 -0.000039 0.569281
v 0.185248 -0.000039 0.569281
v 0.037840 -0.000030 0.600718
v 0.037840 -0.000030 0.600718
v 0.037841 -0.000027 -3.173235
v 0.037841 -0.000027 -3.173235
v 0.064819 -0.065490 1.287400
v 0.072412 -0.073083 1.311796
v 0.072412 -0.073083 1.261666
v 0.106618 -0.107289 1.024357
v 0.072412 -0.073083 1.261666
v 0.072413 -0.073083 0.789904
v 0.061321 -0.061995 0.755596
v 0.072413 -0.073083 0.789904
v 0.072412 -0.073083 0.720808
v 0.130819 -0.131490 0.569281
v 0.072412 -0.073083 0.720808
v 0.026569 -0.027237 0.600715
v 0.130819 -0.131490 0.569281
v 0.026569 -0.027237 -3.173236
v 0.072412 -0.073083 1.311796
v 0.193588 -0.191052 1.634860
v 0.026569 -0.027237 -3.173236
v 0.026569 -0.027237 0.600715
v -0.320338 0.319692 2.822793
v -0.000641 0.452049 2.822793
v -0.452695 -0.000090 2.822793
v -0.320411 -0.319800 2.822793
v -0.000641 -0.452085 2.822793
v 0.319129 -0.319800 2.822793
v 0.451414 -0.000090 2.822793
v 0.319057 0.319692 2.822793
vt 0.161810 0.617660
vt 0.069340 0.414500
vt 0.263210 0.414410
vt 0.263210 0.414410
vt 0.069340 0.414500
vt 0.263210 0.414410
vt 0.069340 0.414500
vt 0.263210 0.414410
vt 0.069340 0.414500
vt 0.573640 0.191370
vt 0.418470 0.278030
vt 0.569840 0.241490
vt 0.418470 0.254310
vt 0.394290 0.323110
vt 0.344850 0.380890
vt 0.394290 0.366690
vt 0.344850 0.342860
vt 0.294730 0.366690
vt 0.294730 0.323110
vt 0.383830 0.132650
vt 0.259300 0.152560
vt 0.383830 0.163910
vt 0.259300 0.112060
vt 0.136280 0.163910
vt 0.136280 0.132650
vt 0.394290 0.323110
vt 0.344850 0.380890
vt 0.394290 0.366690
vt 0.344850 0.342860
vt 0.294730 0.366690
vt 0.294730 0.323110
vt 0.100020 0.132650
vt 0.024620 0.139500
vt 0.100020 0.163910
vt 0.024610 0.088370
vt 0.486880 0.458710
vt 0.498480 0.522160
vt 0.539960 0.480690
vt 0.486880 0.517360
vt 0.991650 0.004890
vt 0.004600 0.022580
vt 0.993870 0.022580
vt 0.006150 0.004890
vt 0.595190 0.104190
vt 0.595190 0.122040
vt 0.607810 0.109420
vt 0.418470 0.305320
vt 0.569840 0.306040
vt 0.344850 0.472760
vt 0.394290 0.471960
vt 0.294730 0.471960
vt 0.259300 0.202240
vt 0.383830 0.202240
vt 0.136280 0.202240
vt 0.344850 0.472760
vt 0.394290 0.471960
vt 0.294730 0.471960
vt 0.024620 0.202240
vt 0.100030 0.202240
vt 0.503290 0.533770
vt 0.561940 0.533770
vt 0.004600 0.038450
vt 0.993870 0.038450
vt 0.613040 0.122040
vt 0.394290 0.577210
vt 0.344850 0.564620
vt 0.294730 0.577210
vt 0.383830 0.240570
vt 0.259300 0.251920
vt 0.136280 0.240570
vt 0.394290 0.577210
vt 0.344850 0.564620
vt 0.294730 0.577210
vt 0.100020 0.240570
vt 0.024620 0.264980
vt 0.539960 0.586860
vt 0.498480 0.545380
vt 0.607810 0.134660
vt 0.569840 0.370590
vt 0.418470 0.355950
vt 0.569840 0.426060
vt 0.418470 0.332620
vt 0.344850 0.602640
vt 0.394290 0.620770
vt 0.294730 0.620770
vt 0.259300 0.292270
vt 0.385200 0.262110
vt 0.136280 0.271680
vt 0.344850 0.602640
vt 0.394290 0.620770
vt 0.294730 0.620770
vt 0.024610 0.315960
vt 0.100030 0.271680
vt 0.486880 0.550190
vt 0.486880 0.608830
vt 0.993870 0.054310
vt 0.006150 0.072550
vt 0.991660 0.072550
vt 0.004600 0.054310
vt 0.595190 0.139890
vt 0.569840 0.241490
vt 0.418470 0.278030
vt 0.394290 0.366690
vt 0.344850 0.380890
vt 0.294730 0.366690
vt 0.383830 0.163910
vt 0.259300 0.152560
vt 0.136280 0.163910
vt 0.394290 0.366690
vt 0.344850 0.380890
vt 0.294730 0.366690
vt 0.100020 0.163910
vt 0.024620 0.139500
vt 0.433800 0.480690
vt 0.475270 0.522160
vt 0.993870 0.022580
vt 0.004600 0.022580
vt 0.582570 0.109420
vt 0.569840 0.306040
vt 0.418470 0.305320
vt 0.394290 0.471960
vt 0.344850 0.472760
vt 0.294730 0.471960
vt 0.383830 0.202240
vt 0.259300 0.202240
vt 0.136280 0.202240
vt 0.394290 0.471960
vt 0.344850 0.472760
vt 0.294730 0.471960
vt 0.100030 0.202240
vt 0.024620 0.202240
vt 0.411810 0.533770
vt 0.470460 0.533770
vt 0.993870 0.038450
vt 0.004600 0.038450
vt 0.577340 0.122040
vt 0.344850 0.564620
vt 0.394290 0.577210
vt 0.294730 0.577210
vt 0.259300 0.251920
vt 0.383830 0.240570
vt 0.136280 0.240570
vt 0.344850 0.564620
vt 0.394290 0.577210
vt 0.294730 0.577210
vt 0.024620 0.264980
vt 0.100020 0.240570
vt 0.475270 0.545380
vt 0.433790 0.586860
vt 0.582570 0.134660
vt 0.418470 0.332620
vt 0.569840 0.370590
vt 0.004600 0.054310
vt 0.993870 0.054310
vt 0.901140 0.216040
vt 0.901140 0.137080
vt 0.901130 0.307490
vt 0.901140 0.398910
vt 0.901130 0.477570
vt 0.901140 0.398910
vt 0.901130 0.307490
vt 0.901140 0.216040
vn -0.0000 -0.0000 1.0000
vn -0.1686 -0.1686 0.9711
vn 0.0000 -0.2385 0.9711
vn -0.2385 -0.0000 0.9711
vn -0.1686 0.1686 0.9712
vn 0.0000 0.2385 0.9711
vn 0.1686 0.1686 0.9712
vn 0.2385 -0.0000 0.9711
vn 0.1686 -0.1686 0.9711
vn -0.0133 0.9549 -0.2968
vn -0.6261 0.6531 -0.4260
vn -0.6970 0.6430 -0.3173
vn -0.0021 0.9021 -0.4315
vn -0.0000 0.9021 -0.4315
vn -0.7066 0.7075 -0.0106
vn -0.6298 0.6494 -0.4261
vn -0.0007 0.9999 -0.0107
vn -0.6759 0.6758 0.2941
vn -0.0000 0.9558 0.2941
vn -0.7071 0.7071 -0.0011
vn -0.0000 1.0000 -0.0011
vn -0.6720 0.6719 -0.3114
vn 0.0000 0.9503 -0.3113
vn -0.7071 0.7071 -0.0029
vn -0.6720 0.6720 -0.3113
vn -0.0010 1.0000 -0.0029
vn -0.6333 0.6331 0.4451
vn 0.0000 0.8955 0.4451
vn -0.6209 0.6208 0.4786
vn -0.6332 0.6332 0.4451
vn -0.0000 0.8780 0.4786
vn 0.0000 -0.2085 -0.9780
vn 0.1474 -0.1475 -0.9780
vn 0.1475 -0.1475 -0.9780
vn -0.0000 1.0000 0.0000
vn -0.7071 0.7071 0.0000
vn -0.0000 -0.0001 -1.0000
vn -0.0000 -0.0000 -1.0000
vn -0.9113 0.0001 -0.4117
vn -0.9585 0.0091 -0.2851
vn -0.9999 0.0008 -0.0105
vn -0.9113 -0.0000 -0.4117
vn -0.9558 -0.0000 0.2941
vn -1.0000 0.0000 -0.0011
vn -0.9558 0.0001 0.2941
vn -0.9503 0.0001 -0.3113
vn -1.0000 0.0009 -0.0026
vn -0.9503 0.0000 -0.3113
vn -0.8955 -0.0000 0.4451
vn -0.8780 0.0000 0.4786
vn -0.8955 0.0001 0.4451
vn 0.2085 -0.0000 -0.9780
vn 0.2086 0.0000 -0.9780
vn -0.9906 0.1368 0.0000
vn -1.0000 -0.0000 -0.0000
vn -0.6299 -0.6495 -0.4259
vn -0.7079 -0.7063 -0.0107
vn -0.6758 -0.6758 0.2942
vn -0.7071 -0.7071 -0.0011
vn -0.6719 -0.6719 -0.3114
vn -0.6720 -0.6719 -0.3114
vn -0.7071 -0.7071 -0.0029
vn -0.6332 -0.6332 0.4452
vn -0.6331 -0.6332 0.4452
vn -0.6208 -0.6209 0.4786
vn 0.1475 0.1475 -0.9780
vn 0.1475 0.1474 -0.9780
vn -0.6947 -0.6469 -0.3145
vn 0.0021 -0.9022 -0.4313
vn -0.0119 -0.9539 -0.3000
vn -0.6276 -0.6517 -0.4258
vn -0.0005 -0.9999 -0.0106
vn 0.0000 -0.9022 -0.4313
vn 0.0000 -0.9558 0.2941
vn 0.0000 -1.0000 -0.0011
vn -0.0000 -0.9503 -0.3113
vn -0.0007 -1.0000 -0.0025
vn 0.0001 -0.9503 -0.3113
vn -0.0000 -0.8955 0.4451
vn 0.0000 -0.8780 0.4786
vn 0.0001 -0.8955 0.4451
vn -0.0001 0.2085 -0.9780
vn -0.0000 0.2086 -0.9780
vn -0.6037 -0.7972 -0.0000
vn 0.0000 -1.0000 -0.0000
vn -0.7071 -0.7071 -0.0000
vn 0.7237 0.6155 -0.3121
vn 0.6563 0.6228 -0.4258
vn 0.6300 0.6494 -0.4258
vn 0.7071 0.7070 -0.0108
vn 0.6759 0.6758 0.2941
vn 0.7071 0.7071 -0.0011
vn 0.6720 0.6719 -0.3113
vn 0.6720 0.6720 -0.3113
vn 0.7071 0.7071 -0.0029
vn 0.6333 0.6331 0.4451
vn 0.6332 0.6331 0.4452
vn 0.6209 0.6208 0.4786
vn -0.1475 -0.1475 -0.9780
vn 0.7071 0.7071 0.0000
vn 0.9564 0.0125 -0.2919
vn 0.9113 0.0001 -0.4117
vn 0.9113 -0.0000 -0.4117
vn 0.9999 0.0010 -0.0108
vn 0.9558 0.0000 0.2941
vn 0.9558 0.0001 0.2941
vn 1.0000 0.0000 -0.0011
vn 0.9503 0.0001 -0.3113
vn 0.9503 0.0000 -0.3113
vn 1.0000 0.0008 -0.0030
vn 0.8955 -0.0000 0.4451
vn 0.8955 0.0000 0.4452
vn 0.8780 0.0000 0.4786
vn -0.2086 0.0000 -0.9780
vn 1.0000 -0.0000 0.0000
vn 0.9906 0.1368 -0.0000
vn 0.7073 -0.7068 -0.0120
vn 0.6299 -0.6495 -0.4259
vn 0.6758 -0.6758 0.2942
vn 0.7071 -0.7071 -0.0011
vn 0.6720 -0.6719 -0.3114
vn 0.7072 -0.7070 -0.0034
vn 0.6332 -0.6332 0.4452
vn 0.6208 -0.6209 0.4787
vn 0.6332 -0.6331 0.4452
vn -0.1475 0.1475 -0.9780
vn -0.1474 0.1474 -0.9780
vn 0.6548 -0.6245 -0.4258
vn 0.7009 -0.6356 -0.3237
vn 0.7071 -0.7071 -0.0000
vn 0.6038 -0.7971 0.0000
vn -0.6842 0.7054 -0.1852
vn -0.0006 0.9835 -0.1810
vn -0.9827 -0.0114 -0.1848
vn -0.6928 -0.6970 -0.1852
vn 0.0006 -0.9835 -0.1808
vn 0.6842 -0.7054 -0.1852
vn 0.9827 0.0114 -0.1848
vn 0.6928 0.6969 -0.1852
usemtl Material.003
s 1
f 1/1/1 2/2/2 3/3/3
f 1/1/1 4/4/4 2/2/2
f 1/1/1 5/5/5 4/4/4
f 1/1/1 6/6/6 5/5/5
f 1/1/1 7/7/7 6/6/6
f 1/1/1 8/8/8 7/7/7
f 1/1/1 9/9/9 8/8/8
f 1/1/1 3/3/3 9/9/9
f 10/10/10 11/11/11 12/12/12
f 10/10/10 13/13/13 11/11/11
f 14/14/14 15/15/15 16/16/16
f 14/14/14 17/17/17 15/15/15
f 17/17/17 18/18/18 15/15/15
f 17/17/17 19/19/19 18/18/18
f 20/20/19 21/21/20 22/22/18
f 20/20/19 23/23/21 21/21/20
f 23/23/21 24/24/22 21/21/20
f 23/23/21 25/25/23 24/24/22
f 26/26/23 27/27/24 28/28/25
f 26/26/23 29/29/26 27/27/24
f 29/29/26 30/30/27 27/27/24
f 29/29/26 31/31/28 30/30/27
f 32/32/28 33/33/29 34/34/30
f 32/32/28 35/35/31 33/33/29
f 36/36/32 37/37/33 38/38/34
f 36/36/32 39/39/32 37/37/33
f 40/40/35 41/41/36 42/42/36
f 40/40/35 43/43/35 41/41/36
f 44/44/37 45/45/38 46/46/38
f 12/12/12 47/47/39 48/48/40
f 12/12/12 11/11/11 47/47/39
f 16/16/16 49/49/41 50/50/42
f 16/16/16 15/15/15 49/49/41
f 15/15/15 51/51/43 49/49/41
f 15/15/15 18/18/18 51/51/43
f 22/22/18 52/52/44 53/53/45
f 22/22/18 21/21/20 52/52/44
f 21/21/20 54/54/46 52/52/44
f 21/21/20 24/24/22 54/54/46
f 28/28/25 55/55/47 56/56/48
f 28/28/25 27/27/24 55/55/47
f 27/27/24 57/57/49 55/55/47
f 27/27/24 30/30/27 57/57/49
f 34/34/30 58/58/50 59/59/51
f 34/34/30 33/33/29 58/58/50
f 38/38/34 60/60/52 61/61/53
f 38/38/34 37/37/33 60/60/52
f 42/42/36 62/62/54 63/63/55
f 42/42/36 41/41/36 62/62/54
f 46/46/38 45/45/38 64/64/38
f 65/65/56 49/49/41 66/66/57
f 65/65/56 50/50/42 49/49/41
f 66/66/57 51/51/43 67/67/58
f 66/66/57 49/49/41 51/51/43
f 68/68/58 52/52/44 69/69/59
f 68/68/58 53/53/45 52/52/44
f 69/69/59 54/54/46 70/70/60
f 69/69/59 52/52/44 54/54/46
f 71/71/61 55/55/47 72/72/62
f 71/71/61 56/56/48 55/55/47
f 72/72/62 57/57/49 73/73/63
f 72/72/62 55/55/47 57/57/49
f 74/74/64 58/58/50 75/75/65
f 74/74/64 59/59/51 58/58/50
f 76/76/66 60/60/52 77/77/67
f 76/76/66 61/61/53 60/60/52
f 64/64/38 45/45/38 78/78/38
f 79/79/68 80/80/69 81/81/70
f 79/79/68 82/82/71 80/80/69
f 65/65/56 83/83/72 84/84/73
f 65/65/56 66/66/57 83/83/72
f 66/66/57 85/85/74 83/83/72
f 66/66/57 67/67/58 85/85/74
f 68/68/58 86/86/75 87/87/74
f 68/68/58 69/69/59 86/86/75
f 69/69/59 88/88/76 86/86/75
f 69/69/59 70/70/60 88/88/76
f 71/71/61 89/89/77 90/90/78
f 71/71/61 72/72/62 89/89/77
f 72/72/62 91/91/79 89/89/77
f 72/72/62 73/73/63 91/91/79
f 74/74/64 92/92/80 93/93/81
f 74/74/64 75/75/65 92/92/80
f 76/76/66 94/94/82 95/95/83
f 76/76/66 77/77/67 94/94/82
f 96/96/84 97/97/85 98/98/85
f 96/96/84 99/99/86 97/97/85
f 78/78/38 45/45/38 100/100/38
f 79/79/68 47/47/39 82/82/71
f 79/79/68 48/48/40 47/47/39
f 96/96/84 62/62/54 99/99/86
f 62/62/54 96/96/84 63/63/55
f 13/13/13 101/101/87 102/102/88
f 13/13/13 10/10/10 101/101/87
f 17/17/17 103/103/89 104/104/90
f 17/17/17 14/14/14 103/103/89
f 19/19/19 104/104/90 105/105/91
f 19/19/19 17/17/17 104/104/90
f 23/23/21 106/106/91 107/107/92
f 23/23/21 20/20/19 106/106/91
f 25/25/23 107/107/92 108/108/93
f 25/25/23 23/23/21 107/107/92
f 29/29/26 109/109/94 110/110/95
f 29/29/26 26/26/23 109/109/94
f 31/31/28 110/110/95 111/111/96
f 31/31/28 29/29/26 110/110/95
f 35/35/31 112/112/97 113/113/98
f 35/35/31 32/32/28 112/112/97
f 39/39/32 114/114/99 115/115/99
f 39/39/32 36/36/32 114/114/99
f 43/43/35 116/116/100 117/117/100
f 43/43/35 40/40/35 116/116/100
f 45/45/38 44/44/37 118/118/37
f 102/102/88 119/119/101 120/120/102
f 102/102/88 101/101/87 119/119/101
f 104/104/90 121/121/103 122/122/104
f 104/104/90 103/103/89 121/121/103
f 105/105/91 122/122/104 123/123/105
f 105/105/91 104/104/90 122/122/104
f 107/107/92 124/124/106 125/125/107
f 107/107/92 106/106/91 124/124/106
f 108/108/93 125/125/107 126/126/108
f 108/108/93 107/107/92 125/125/107
f 110/110/95 127/127/109 128/128/110
f 110/110/95 109/109/94 127/127/109
f 111/111/96 128/128/110 129/129/111
f 111/111/96 110/110/95 128/128/110
f 113/113/98 130/130/112 131/131/113
f 113/113/98 112/112/97 130/130/112
f 115/115/99 132/132/114 133/133/114
f 115/115/99 114/114/99 132/132/114
f 117/117/100 134/134/115 135/135/116
f 117/117/100 116/116/100 134/134/115
f 45/45/38 118/118/37 136/136/38
f 121/121/103 137/137/117 122/122/104
f 121/121/103 138/138/118 137/137/117
f 122/122/104 139/139/119 123/123/105
f 122/122/104 137/137/117 139/139/119
f 124/124/106 140/140/120 125/125/107
f 124/124/106 141/141/119 140/140/120
f 125/125/107 142/142/121 126/126/108
f 125/125/107 140/140/120 142/142/121
f 127/127/109 143/143/122 128/128/110
f 127/127/109 144/144/121 143/143/122
f 128/128/110 145/145/123 129/129/111
f 128/128/110 143/143/122 145/145/123
f 130/130/112 146/146/124 131/131/113
f 130/130/112 147/147/125 146/146/124
f 132/132/114 148/148/126 133/133/114
f 132/132/114 149/149/127 148/148/126
f 45/45/38 136/136/38 150/150/38
f 151/151/128 81/81/70 80/80/69
f 151/151/128 152/152/129 81/81/70
f 137/137/117 84/84/73 83/83/72
f 137/137/117 138/138/118 84/84/73
f 139/139/119 83/83/72 85/85/74
f 139/139/119 137/137/117 83/83/72
f 140/140/120 87/87/74 86/86/75
f 140/140/120 141/141/119 87/87/74
f 142/142/121 86/86/75 88/88/76
f 142/142/121 140/140/120 86/86/75
f 143/143/122 90/90/78 89/89/77
f 143/143/122 144/144/121 90/90/78
f 145/145/123 89/89/77 91/91/79
f 145/145/123 143/143/122 89/89/77
f 146/146/124 93/93/81 92/92/80
f 146/146/124 147/147/125 93/93/81
f 148/148/126 95/95/83 94/94/82
f 148/148/126 149/149/127 95/95/83
f 153/153/130 98/98/85 97/97/85
f 153/153/130 154/154/131 98/98/85
f 45/45/38 150/150/38 100/100/38
f 119/119/101 151/151/128 120/120/102
f 119/119/101 152/152/129 151/151/128
f 135/135/116 154/154/131 153/153/130
f 154/154/131 135/135/116 134/134/115
f 155/155/132 10/10/10 12/12/12
f 155/155/132 156/156/133 10/10/10
f 157/157/134 12/12/12 48/48/40
f 157/157/134 155/155/132 12/12/12
f 48/48/40 158/158/135 157/157/134
f 48/48/40 79/79/68 158/158/135
f 79/79/68 159/159/136 158/158/135
f 79/79/68 81/81/70 159/159/136
f 81/81/70 160/160/137 159/159/136
f 81/81/70 152/152/129 160/160/137
f 161/161/138 152/152/129 119/119/101
f 161/161/138 160/160/137 152/152/129
f 119/119/101 162/162/139 161/161/138
f 119/119/101 101/101/87 162/162/139
f 101/101/87 156/156/133 162/162/139
f 101/101/87 10/10/10 156/156/133
o 0Broom2_Mesh_0011.rip
v -0.000641 0.466488 2.889726
v 0.372511 0.373149 3.173214
v -0.000644 0.527634 3.173214
v 0.329266 0.329904 2.889727
v 0.526999 -0.000105 3.173218
v 0.465850 -0.000093 2.889726
v 0.372595 -0.373269 3.173217
v 0.329341 -0.330012 2.889726
v -0.000644 -0.527676 3.173218
v -0.000641 -0.466524 2.889726
v -0.373879 -0.373269 3.173217
v -0.330622 -0.330012 2.889727
v -0.528283 -0.000105 3.173217
v -0.467135 -0.000093 2.889726
v -0.373796 0.373149 3.173214
v -0.330551 0.329901 2.889727
v -0.000641 0.452049 2.822793
v 0.372511 0.373149 3.173214
v 0.319057 0.319692 2.822793
v -0.000644 0.527634 3.173214
v 0.526999 -0.000105 3.173218
v 0.451414 -0.000090 2.822793
v 0.372595 -0.373269 3.173217
v 0.319129 -0.319800 2.822793
v -0.000644 -0.527676 3.173218
v -0.000641 -0.452085 2.822793
v -0.373879 -0.373269 3.173217
v -0.320411 -0.319800 2.822793
v -0.528283 -0.000105 3.173217
v -0.452695 -0.000090 2.822793
v -0.373796 0.373149 3.173214
v -0.320338 0.319692 2.822793
vt 0.661490 0.604900
vt 0.754240 0.668570
vt 0.754240 0.583900
vt 0.661490 0.684950
vt 0.754240 0.773820
vt 0.661490 0.779030
vt 0.754240 0.879050
vt 0.661490 0.873080
vt 0.754240 0.956490
vt 0.661490 0.942550
vt 0.754240 0.879050
vt 0.661490 0.873080
vt 0.754240 0.773820
vt 0.661490 0.779030
vt 0.754240 0.668570
vt 0.661490 0.684950
vt 0.899980 0.600410
vt 0.970300 0.664610
vt 0.899980 0.679370
vt 0.970300 0.579940
vt 0.970300 0.769860
vt 0.899980 0.770810
vt 0.970300 0.875090
vt 0.899980 0.862230
vt 0.970300 0.959460
vt 0.899980 0.940890
vt 0.970300 0.875090
vt 0.899980 0.862230
vt 0.970300 0.769860
vt 0.899980 0.770810
vt 0.970300 0.664610
vt 0.899980 0.679370
vn 0.0000 -0.9775 0.2108
vn -0.6912 -0.6912 0.2109
vn -0.9775 -0.0000 0.2109
vn -0.9775 -0.0001 0.2108
vn -0.6912 0.6912 0.2109
vn 0.0000 0.9775 0.2109
vn 0.6912 0.6912 0.2109
vn 0.9775 -0.0000 0.2108
vn 0.9775 -0.0001 0.2108
vn 0.6912 -0.6912 0.2109
vn -0.0000 0.9835 -0.1810
vn 0.6912 0.6912 -0.2109
vn 0.6853 0.7043 -0.1852
vn -0.0000 0.9775 -0.2109
vn 0.9775 0.0000 -0.2108
vn 0.9828 -0.0000 -0.1849
vn 0.6912 -0.6912 -0.2109
vn 0.6853 -0.7044 -0.1851
vn -0.0000 -0.9775 -0.2109
vn -0.0000 -0.9835 -0.1808
vn -0.6912 -0.6912 -0.2109
vn -0.6853 -0.7044 -0.1852
vn -0.9775 0.0000 -0.2109
vn -0.9828 -0.0000 -0.1848
vn -0.6912 0.6912 -0.2109
vn -0.6853 0.7043 -0.1852
usemtl Material.003
s 1
f 163/163/140 164/164/141 165/165/140
f 163/163/140 166/166/141 164/164/141
f 166/166/141 167/167/142 164/164/141
f 166/166/141 168/168/143 167/167/142
f 168/168/143 169/169/144 167/167/142
f 168/168/143 170/170/144 169/169/144
f 170/170/144 171/171/145 169/169/144
f 170/170/144 172/172/145 171/171/145
f 172/172/145 173/173/146 171/171/145
f 172/172/145 174/174/146 173/173/146
f 174/174/146 175/175/147 173/173/146
f 174/174/146 176/176/148 175/175/147
f 176/176/148 177/177/149 175/175/147
f 176/176/148 178/178/149 177/177/149
f 178/178/149 165/165/140 177/177/149
f 178/178/149 163/163/140 165/165/140
f 179/179/150 180/180/151 181/181/152
f 179/179/150 182/182/153 180/180/151
f 181/181/152 183/183/154 184/184/155
f 181/181/152 180/180/151 183/183/154
f 184/184/155 185/185/156 186/186/157
f 184/184/155 183/183/154 185/185/156
f 186/186/157 187/187/158 188/188/159
f 186/186/157 185/185/156 187/187/158
f 188/188/159 189/189/160 190/190/161
f 188/188/159 187/187/158 189/189/160
f 190/190/161 191/191/162 192/192/163
f 190/190/161 189/189/160 191/191/162
f 192/192/163 193/193/164 194/194/165
f 192/192/163 191/191/162 193/193/164
f 194/194/165 182/182/153 179/179/150
f 194/194/165 193/193/164 182/182/153
